<?xml version="1.0" encoding="iso-8859-1"?>
<!-- Uploaded to: SVG Repo, www.svgrepo.com, Generator: SVG Repo Mixer Tools -->
<!DOCTYPE svg PUBLIC "-//W3C//DTD SVG 1.1//EN" "http://www.w3.org/Graphics/SVG/1.1/DTD/svg11.dtd">
<svg fill="#000000" version="1.1" id="Capa_1" xmlns="http://www.w3.org/2000/svg" xmlns:xlink="http://www.w3.org/1999/xlink" 
	 width="100px" height="100px" viewBox="0 0 80 80" xml:space="preserve">
<g>
	<g>
		<path d="M40,0C17.909,0,0,17.909,0,40c0,22.092,17.909,40,40,40c22.092,0,40-17.908,40-40C80,17.909,62.092,0,40,0z
			 M65.576,31.223l-6.32,6.32v16.262c0,0.551-0.447,1-1,1h-36.66c-0.552,0-1-0.449-1-1V24.918c0-0.552,0.448-1,1-1h36.662
			c0.551,0,1,0.448,1,1v2.889l1.452-1.453c0.188-0.188,0.442-0.293,0.707-0.293s0.521,0.105,0.707,0.293l3.453,3.454
			C65.967,30.199,65.967,30.832,65.576,31.223z"/>
		<path d="M51.68,39.299l-0.156-3.296c-0.014-0.281,0.093-0.555,0.291-0.754l3.313-3.313v-0.897H24.723v19.562h30.405V40.37
			l-2.497-0.12C52.117,40.227,51.704,39.814,51.68,39.299z M50.21,48.441H26.273c-0.552,0-1-0.448-1-1c0-0.553,0.448-1,1-1H50.21
			c0.552,0,1,0.447,1,1C51.21,47.993,50.762,48.441,50.21,48.441z M50.21,44.891H26.273c-0.552,0-1-0.449-1-1c0-0.553,0.448-1,1-1
			H50.21c0.552,0,1,0.447,1,1C51.21,44.441,50.762,44.891,50.21,44.891z M50.21,41.339H26.273c-0.552,0-1-0.448-1-1s0.448-1,1-1
			H50.21c0.552,0,1,0.448,1,1S50.762,41.339,50.21,41.339z M50.21,37.788H26.273c-0.552,0-1-0.448-1-1c0-0.552,0.448-1,1-1H50.21
			c0.552,0,1,0.448,1,1C51.21,37.34,50.762,37.788,50.21,37.788z M50.21,34.236H26.273c-0.552,0-1-0.448-1-1c0-0.552,0.448-1,1-1
			H50.21c0.552,0,1,0.448,1,1C51.21,33.788,50.762,34.236,50.21,34.236z"/>
		<polygon points="53.542,36.349 53.635,38.296 55.579,38.389 63.455,30.516 61.416,28.476 		"/>
	</g>
</g>
</svg>